<svg width="32" height="32" viewBox="0 0 32 32" fill="none" xmlns="http://www.w3.org/2000/svg">
  <rect width="32" height="32" rx="8" fill="#12161D"/>
  <path d="M12.5 8.5H10.75C9.51 8.5 8.5 9.51 8.5 10.75V13.1C8.5 14.34 7.49 15.35 6.25 15.35H5.5V16.65H6.25C7.49 16.65 8.5 17.66 8.5 18.9V21.25C8.5 22.49 9.51 23.5 10.75 23.5H12.5" stroke="#B8F34B" stroke-width="2" stroke-linecap="round"/>
  <path d="M19.5 8.5H21.25C22.49 8.5 23.5 9.51 23.5 10.75V13.1C23.5 14.34 24.51 15.35 25.75 15.35H26.5V16.65H25.75C24.51 16.65 23.5 17.66 23.5 18.9V21.25C23.5 22.49 22.49 23.5 21.25 23.5H19.5" stroke="#B8F34B" stroke-width="2" stroke-linecap="round"/>
  <path d="M14.2 11L17.8 16L14.2 21" stroke="#F3F5F7" stroke-width="2" stroke-linecap="round" stroke-linejoin="round"/>
</svg>
